<?xml version="1.0" encoding="UTF-8" standalone="no"?>
<!-- Created with Inkscape (http://www.inkscape.org/) -->

<svg
   width="200mm"
   height="60mm"
   viewBox="0 0 200 60"
   version="1.1"
   id="svg1"
   sodipodi:docname="nx-logo.svg"
   inkscape:export-filename="nx-logo.svg"
   inkscape:export-xdpi="96"
   inkscape:export-ydpi="96"
   inkscape:version="1.3.2 (091e20ef0f, 2023-11-25, custom)"
   xmlns:inkscape="http://www.inkscape.org/namespaces/inkscape"
   xmlns:sodipodi="http://sodipodi.sourceforge.net/DTD/sodipodi-0.dtd"
   xmlns="http://www.w3.org/2000/svg"
   xmlns:svg="http://www.w3.org/2000/svg">
  <sodipodi:namedview
     id="namedview1"
     pagecolor="#ffffff"
     bordercolor="#000000"
     borderopacity="0.25"
     inkscape:showpageshadow="2"
     inkscape:pageopacity="0.0"
     inkscape:pagecheckerboard="0"
     inkscape:deskcolor="#d1d1d1"
     inkscape:document-units="mm"
     inkscape:zoom="0.65012787"
     inkscape:cx="392.99961"
     inkscape:cy="90.751378"
     inkscape:window-width="1440"
     inkscape:window-height="843"
     inkscape:window-x="0"
     inkscape:window-y="0"
     inkscape:window-maximized="1"
     inkscape:current-layer="svg1" />
  <defs
     id="defs1" />
  <g
     id="g1"
     transform="translate(-2.7227904,7.7951486)">
    <g
       id="layer1"
       transform="matrix(0.86920566,0,0,0.86920566,5.2124946,-89.793119)">
      <path
         class="cls-1"
         d="M 37.703145,107.68552 H 31.75002 a 0.68262499,0.68262499 0 0 0 -0.687916,0.68792 l 0.132291,22.27791 a 0.14816666,0.14816666 0 0 1 -0.264583,0.0794 L 16.430645,108.24114 a 1.1668125,1.1668125 0 0 0 -1.005416,-0.55562 H 8.8900205 a 0.68262499,0.68262499 0 0 0 -0.6879166,0.68792 v 34.66041 a 0.68262499,0.68262499 0 0 0 0.6879166,0.68792 h 5.9531245 a 0.68262499,0.68262499 0 0 0 0.687917,-0.68792 v -22.03979 a 0.14816666,0.14816666 0 0 1 0.264583,-0.0794 l 14.340417,22.27791 a 1.1668125,1.1668125 0 0 0 1.005417,0.55563 h 6.535208 a 0.68262499,0.68262499 0 0 0 0.687917,-0.68792 v -34.64983 a 0.65352083,0.65352083 0 0 0 -0.661459,-0.72496 z"
         id="path1"
         style="fill:#f75000;stroke-width:0.264583" />
      <path
         class="cls-1"
         d="m 137.79502,121.57614 c -1.82563,-2.30187 -4.78896,-3.46604 -7.99042,-3.46604 a 8.1597499,8.1597499 0 0 0 -2.19604,0.3175 6.6145832,6.6145832 0 0 0 -2.35479,1.40229 0.142875,0.142875 0 0 1 -0.23813,-0.10583 v -0.44979 a 0.68262499,0.68262499 0 0 0 -0.68791,-0.68792 h -5.87375 a 0.68262499,0.68262499 0 0 0 -0.68792,0.68792 v 23.79662 a 0.68262499,0.68262499 0 0 0 0.68792,0.68792 h 5.84729 a 0.68262499,0.68262499 0 0 0 0.68792,-0.68792 c 0,0 0.0265,-14.49916 0.0265,-14.63145 0,-2.24896 1.85209,-3.59834 3.96875,-3.59834 2.56646,0 3.86292,1.82563 3.99521,3.83646 v 14.39333 a 0.68262499,0.68262499 0 0 0 0.68792,0.68792 h 5.87375 a 0.68262499,0.68262499 0 0 0 0.68792,-0.68792 v -12.32958 c 0.0503,-4.21746 -0.71438,-6.985 -2.43417,-9.16517 z"
         id="path2"
         style="fill:#f75000;stroke-width:0.264583" />
      <path
         class="cls-1"
         d="m 113.05648,118.55989 h -5.87375 a 0.71172916,0.71172916 0 0 0 -0.71438,0.71438 v 0.42333 a 0.14022916,0.14022916 0 0 1 -0.23812,0.10584 9.4800207,9.4800207 0 0 0 -5.42396,-1.77271 12.620625,12.620625 0 0 0 -8.625417,3.30729 c -2.8575,2.56646 -4.312708,5.84729 -4.312708,9.78958 0,3.41313 1.11125,6.37646 3.33375,8.83709 2.566458,2.8575 5.794374,4.3127 9.604375,4.3127 1.87854,0 3.70417,-0.60854 5.42396,-1.64041 a 0.13758333,0.13758333 0 0 1 0.21166,0.13229 v 0.30162 a 0.71172916,0.71172916 0 0 0 0.71438,0.71438 h 5.8711 a 0.71172916,0.71172916 0 0 0 0.71438,-0.71438 v -23.78604 a 0.67468749,0.67468749 0 0 0 -0.68527,-0.72496 z m -12.11792,18.97063 a 5.3710416,5.3710416 0 0 1 -3.995207,-1.64042 c -1.137709,-1.13771 -1.693334,-2.72521 -1.693334,-4.7625 0,-1.74625 0.423334,-3.14854 1.243542,-4.23333 a 5.2175833,5.2175833 0 0 1 4.312709,-2.11667 c 1.69333,0 3.01625,0.52917 4.04812,1.61396 1.11125,1.16417 1.66688,2.75167 1.66688,4.70958 0,1.74625 -0.42333,3.175 -1.24354,4.28625 -1.03188,1.45521 -2.46063,2.14313 -4.33917,2.14313 z"
         id="path3"
         style="fill:#f75000;stroke-width:0.264583" />
      <path
         class="cls-1"
         d="m 67.124811,118.55989 h -5.873749 a 0.71172916,0.71172916 0 0 0 -0.714375,0.71438 v 0.42333 a 0.14022916,0.14022916 0 0 1 -0.238125,0.10584 9.4800207,9.4800207 0 0 0 -5.423959,-1.77271 12.620625,12.620625 0 0 0 -8.625416,3.30729 c -2.8575,2.56646 -4.312709,5.84729 -4.312709,9.78958 0,3.41313 1.11125,6.37646 3.33375,8.83709 2.566459,2.8575 5.794375,4.3127 9.604375,4.3127 1.878542,0 3.704167,-0.60854 5.423959,-1.64041 a 0.13758333,0.13758333 0 0 1 0.211666,0.13229 v 0.30162 a 0.71172916,0.71172916 0 0 0 0.714375,0.71438 h 5.87375 a 0.71172916,0.71172916 0 0 0 0.714375,-0.71438 v -23.78604 a 0.67468749,0.67468749 0 0 0 -0.687917,-0.72496 z m -12.117916,18.97063 a 5.3710416,5.3710416 0 0 1 -3.995208,-1.64042 c -1.137709,-1.13771 -1.693334,-2.72521 -1.693334,-4.7625 0,-1.74625 0.423334,-3.14854 1.243542,-4.23333 a 5.2175833,5.2175833 0 0 1 4.312708,-2.11667 c 1.693334,0 3.01625,0.52917 4.048125,1.61396 1.11125,1.16417 1.666875,2.75167 1.666875,4.70958 0,1.74625 -0.423333,3.175 -1.243541,4.28625 -1.031875,1.45521 -2.460625,2.14313 -4.339167,2.14313 z"
         id="path4"
         style="fill:#f75000;stroke-width:0.264583" />
      <path
         class="cls-1"
         d="m 179.75794,118.55989 h -5.8764 a 0.71172916,0.71172916 0 0 0 -0.71438,0.71438 v 0.42333 a 0.14022916,0.14022916 0 0 1 -0.23812,0.10584 9.4800207,9.4800207 0 0 0 -5.42396,-1.77271 12.620625,12.620625 0 0 0 -8.62542,3.30729 c -2.8575,2.56646 -4.3127,5.84729 -4.3127,9.78958 0,3.41313 1.11125,6.37646 3.33375,8.83709 2.56645,2.8575 5.79437,4.3127 9.60437,4.3127 1.87854,0 3.70417,-0.60854 5.42396,-1.64041 a 0.13758333,0.13758333 0 0 1 0.21167,0.13229 v 0.30162 a 0.71172916,0.71172916 0 0 0 0.71437,0.71438 h 5.87375 a 0.71172916,0.71172916 0 0 0 0.71438,-0.71438 v -23.78604 a 0.70643749,0.70643749 0 0 0 -0.68527,-0.72496 z m -12.11792,18.97063 a 5.3710416,5.3710416 0 0 1 -3.99521,-1.64042 c -1.13771,-1.13771 -1.69333,-2.72521 -1.69333,-4.7625 0,-1.74625 0.42333,-3.14854 1.24354,-4.23333 a 5.2175833,5.2175833 0 0 1 4.31271,-2.11667 c 1.69333,0 3.01625,0.52917 4.04812,1.61396 1.11125,1.16417 1.66688,2.75167 1.66688,4.70958 0,1.74625 -0.42334,3.175 -1.24354,4.28625 -1.05834,1.45521 -2.48709,2.14313 -4.33917,2.14313 z"
         id="path5"
         style="fill:#f75000;stroke-width:0.264583" />
      <path
         class="cls-1"
         d="m 84.031686,118.66573 a 6.8077291,6.8077291 0 0 0 -3.730625,1.29646 0.14552083,0.14552083 0 0 1 -0.238125,-0.10584 v -0.58208 a 0.68262499,0.68262499 0 0 0 -0.687916,-0.68792 h -5.87375 a 0.68262499,0.68262499 0 0 0 -0.687917,0.68792 v 23.79662 a 0.68262499,0.68262499 0 0 0 0.687917,0.68792 h 5.87375 a 0.68262499,0.68262499 0 0 0 0.687916,-0.68792 v -11.45645 c 0,-2.46063 0.291042,-4.15396 0.899584,-5.02709 0.529166,-0.79375 1.5875,-1.19062 3.122083,-1.19062 a 18.560521,18.560521 0 0 1 2.090208,0.10583 0.71172916,0.71172916 0 0 0 0.714375,-0.71437 v -5.26521 a 0.68791666,0.68791666 0 0 0 -0.608541,-0.68792 18.970625,18.970625 0 0 0 -2.248959,-0.16933 z"
         id="path6"
         style="fill:#f75000;stroke-width:0.264583" />
      <path
         class="cls-1"
         d="m 151.34169,108.98198 a 4.2836041,4.2836041 0 0 0 -3.06917,-1.27 4.4635208,4.4635208 0 0 0 -3.14854,1.24354 4.0798749,4.0798749 0 0 0 -1.29646,3.06917 4.3814999,4.3814999 0 0 0 4.39208,4.36562 4.3576874,4.3576874 0 0 0 3.12209,-1.27 4.1962916,4.1962916 0 0 0 1.27,-3.06917 4.0772291,4.0772291 0 0 0 -1.27,-3.06916 z"
         id="path7"
         style="fill:#f75000;stroke-width:0.264583" />
      <path
         class="cls-1"
         d="m 151.15648,118.55989 h -5.87375 a 0.68262499,0.68262499 0 0 0 -0.68792,0.68792 v 24.97667 c -0.0265,1.03187 -0.47625,4.445 -5.23875,4.78896 a 0.69849999,0.69849999 0 0 0 -0.635,0.71437 v 5.63563 0 0.0265 0 0.0265 0 a 0.70114582,0.70114582 0 0 0 0.68792,0.68792 h 0.0529 c 1.19063,-0.0529 11.82688,-0.87313 12.3825,-11.13896 a 0.39158333,0.39158333 0 0 0 0.0265,-0.18521 v -25.50583 a 0.72760416,0.72760416 0 0 0 -0.71437,-0.71438 z"
         id="path8"
         style="fill:#f75000;stroke-width:0.264583" />
      <path
         class="cls-1"
         d="m 193.91314,108.29406 a 1.3705416,1.3705416 0 0 0 -1.11125,-0.60854 h -6.79979 a 0.68791666,0.68791666 0 0 0 -0.58208,1.05833 l 10.87437,16.80104 a 0.33602083,0.33602083 0 0 1 0,0.3175 l -10.87437,16.80105 a 0.68791666,0.68791666 0 0 0 0.58208,1.05833 h 6.82625 a 1.2991042,1.2991042 0 0 0 1.08479,-0.58208 l 10.60979,-16.48355 a 1.7727083,1.7727083 0 0 0 0,-1.905 z"
         id="path9"
         style="fill:#f75000;stroke-width:0.264583" />
      <path
         class="cls-2"
         d="m 206.68987,128.13781 a 0.26458333,0.26458333 0 0 0 -0.47625,0 l -3.54541,5.50333 a 1.7727083,1.7727083 0 0 0 0,1.905 l 4.81541,7.48771 a 1.5319375,1.5319375 0 0 0 1.29646,0.71438 h 6.69396 a 0.68791666,0.68791666 0 0 0 0.58208,-1.05834 z m 9.47209,14.94896 z"
         id="path10"
         style="fill:#50007f;stroke-width:0.264583" />
      <path
         class="cls-2"
         d="m 207.48362,108.41048 -4.81541,7.48771 a 1.7727083,1.7727083 0 0 0 0,1.905 l 3.54541,5.50333 a 0.29897916,0.29897916 0 0 0 0.47625,0 l 9.36625,-14.55208 a 0.68791666,0.68791666 0 0 0 -0.58208,-1.05834 h -6.72042 a 1.5187083,1.5187083 0 0 0 -1.27,0.71438 z"
         id="path11"
         style="fill:#50007f;stroke-width:0.264583" />
    </g>
  </g>
</svg>
