<?xml version="1.0" encoding="UTF-8" standalone="no"?>
<!-- Created with Inkscape (http://www.inkscape.org/) -->

<svg
   xmlns:dc="http://purl.org/dc/elements/1.1/"
   xmlns:cc="http://creativecommons.org/ns#"
   xmlns:rdf="http://www.w3.org/1999/02/22-rdf-syntax-ns#"
   xmlns:svg="http://www.w3.org/2000/svg"
   xmlns="http://www.w3.org/2000/svg"
   xmlns:sodipodi="http://sodipodi.sourceforge.net/DTD/sodipodi-0.dtd"
   xmlns:inkscape="http://www.inkscape.org/namespaces/inkscape"
   version="1.1"
   id="svg2"
   xml:space="preserve"
   width="700"
   height="700"
   viewBox="0 0 700 699.99999"
   sodipodi:docname="banco-galicia-logo.svg"
   inkscape:export-filename="G:\Users\suitedoalex\sites\banco-galicia-logo-0.png"
   inkscape:export-xdpi="561.73712"
   inkscape:export-ydpi="561.73712"
   inkscape:version="0.92.4 (5da689c313, 2019-01-14)"><metadata
     id="metadata8"><rdf:RDF><cc:Work
         rdf:about=""><dc:format>image/svg+xml</dc:format><dc:type
           rdf:resource="http://purl.org/dc/dcmitype/StillImage" /><dc:title></dc:title></cc:Work></rdf:RDF></metadata><defs
     id="defs6"><clipPath
       clipPathUnits="userSpaceOnUse"
       id="clipPath18"><path
         d="M 0,0 H 595.275 V 841.89 H 0 Z"
         id="path16"
         inkscape:connector-curvature="0" /></clipPath><clipPath
       clipPathUnits="userSpaceOnUse"
       id="clipPath58"><path
         d="M 0,0 H 595.276 V 841.89 H 0 Z"
         id="path56"
         inkscape:connector-curvature="0" /></clipPath><clipPath
       clipPathUnits="userSpaceOnUse"
       id="clipPath84"><path
         d="M 0,0 H 595.276 V 841.89 H 0 Z"
         id="path82"
         inkscape:connector-curvature="0" /></clipPath><clipPath
       clipPathUnits="userSpaceOnUse"
       id="clipPath98"><path
         d="M 0,0 H 595.276 V 841.89 H 0 Z"
         id="path96"
         inkscape:connector-curvature="0" /></clipPath><clipPath
       clipPathUnits="userSpaceOnUse"
       id="clipPath114"><path
         d="M 0,0 H 595.276 V 841.89 H 0 Z"
         id="path112"
         inkscape:connector-curvature="0" /></clipPath></defs><sodipodi:namedview
     pagecolor="#ffffff"
     bordercolor="#666666"
     borderopacity="1"
     objecttolerance="10"
     gridtolerance="10"
     guidetolerance="10"
     inkscape:pageopacity="0"
     inkscape:pageshadow="2"
     inkscape:window-width="1600"
     inkscape:window-height="837"
     id="namedview4"
     showgrid="false"
     inkscape:zoom="0.29732601"
     inkscape:cx="216.02844"
     inkscape:cy="203.74676"
     inkscape:window-x="-8"
     inkscape:window-y="-8"
     inkscape:window-maximized="1"
     inkscape:current-layer="g10" /><g
     id="g10"
     inkscape:groupmode="layer"
     inkscape:label="banco-galicia-logo"
     transform="matrix(1.3333333,0,0,-1.3333333,0,699.99998)"><path
       d="M 489.52912,199.26686 H 35.470892 V 325.73313 H 489.52912 Z"
       style="fill:#ffffff;fill-opacity:1;fill-rule:nonzero;stroke:none;stroke-width:2.96632433"
       id="path50"
       inkscape:connector-curvature="0"
       inkscape:export-filename="G:\Users\suitedoalex\sites\banco-galicia-logo-4.png"
       inkscape:export-xdpi="63.194611"
       inkscape:export-ydpi="63.194611" /><g
       id="g52"
       transform="matrix(2.9663243,0,0,2.9663243,-76.368433,37.898817)"
       inkscape:export-filename="G:\Users\suitedoalex\sites\banco-galicia-logo-4.png"
       inkscape:export-xdpi="63.194611"
       inkscape:export-ydpi="63.194611"><g
         id="g54"
         clip-path="url(#clipPath58)"><g
           id="g60"
           transform="translate(188.4106,94.6641)"><path
             d="m 0,0 h -116.612 c 5.383,-3.923 8.915,-10.249 9,-17.422 0.109,-9.259 -5.557,-17.236 -13.647,-20.523 H 0 Z"
             style="fill:#f58220;fill-opacity:1;fill-rule:nonzero;stroke:none"
             id="path62"
             inkscape:connector-curvature="0" /></g><g
           id="g64"
           transform="translate(59.0947,94.6641)"><path
             d="M 0,0 -18.995,0.003 V -37.919 L 0,-37.922 c 10.514,-0.023 19.041,8.473 19.041,18.952 C 19.041,-8.49 10.514,0 0,0"
             style="fill:#c41230;fill-opacity:1;fill-rule:nonzero;stroke:none"
             id="path66"
             inkscape:connector-curvature="0" /></g><g
           id="g68"
           transform="translate(140.134,84.5703)"><path
             d="m 0,0 c 0,-0.557 -0.19,-1.032 -0.565,-1.419 -0.381,-0.386 -0.848,-0.58 -1.412,-0.58 -0.557,0 -1.023,0.194 -1.392,0.58 -0.367,0.387 -0.549,0.862 -0.549,1.419 0,0.564 0.182,1.04 0.549,1.424 0.369,0.384 0.835,0.58 1.392,0.58 0.564,0 1.031,-0.196 1.412,-0.58 C -0.19,1.04 0,0.564 0,0"
             style="fill:#ffffff;fill-opacity:1;fill-rule:nonzero;stroke:none"
             id="path70"
             inkscape:connector-curvature="0" /></g><g
           id="g72"
           transform="translate(121.7656,64.3987)"><path
             d="M 0,0 -0.278,1.791 H -0.34 C -0.484,1.646 -0.683,1.454 -0.94,1.218 -1.197,0.983 -1.507,0.746 -1.867,0.51 -2.226,0.271 -2.642,0.067 -3.116,-0.106 -3.588,-0.283 -4.112,-0.37 -4.687,-0.37 c -0.517,0 -1.031,0.103 -1.546,0.31 -0.514,0.205 -0.971,0.503 -1.386,0.893 -0.412,0.393 -0.747,0.874 -1.003,1.451 -0.256,0.575 -0.384,1.223 -0.384,1.942 0,1.129 0.297,2.026 0.897,2.683 0.595,0.657 1.327,1.159 2.2,1.497 0.877,0.34 1.818,0.559 2.826,0.664 1.007,0.1 1.931,0.154 2.775,0.154 v 0.278 c 0,0.986 -0.19,1.727 -0.571,2.219 -0.381,0.494 -1.058,0.74 -2.02,0.74 -0.492,0 -0.983,-0.056 -1.464,-0.17 C -4.845,12.18 -5.285,12.059 -5.674,11.937 -6.126,11.794 -6.571,11.627 -7,11.445 l -0.832,2.219 c 0.574,0.286 1.19,0.546 1.852,0.773 0.53,0.207 1.143,0.389 1.832,0.553 0.69,0.165 1.371,0.246 2.051,0.246 1.707,0 3.02,-0.465 3.932,-1.4 0.913,-0.937 1.369,-2.25 1.369,-3.933 L 3.204,0 Z M -0.308,6.941 C -0.8,6.941 -1.353,6.909 -1.956,6.849 -2.565,6.787 -3.14,6.668 -3.685,6.493 -4.232,6.319 -4.683,6.06 -5.044,5.72 -5.404,5.382 -5.583,4.936 -5.583,4.382 c 0,-0.618 0.208,-1.091 0.619,-1.421 0.409,-0.327 0.862,-0.494 1.354,-0.494 0.435,0 0.851,0.083 1.251,0.246 0.403,0.167 0.753,0.354 1.06,0.559 0.375,0.224 0.702,0.492 0.991,0.8 z"
             style="fill:#ffffff;fill-opacity:1;fill-rule:nonzero;stroke:none"
             id="path74"
             inkscape:connector-curvature="0" /></g></g></g><path
       d="m 328.00683,273.02451 h 10.97836 v -44.09738 h -10.97836 z"
       style="fill:#ffffff;fill-opacity:1;fill-rule:nonzero;stroke:none;stroke-width:2.96632433"
       id="path76"
       inkscape:connector-curvature="0"
       inkscape:export-filename="G:\Users\suitedoalex\sites\banco-galicia-logo-4.png"
       inkscape:export-xdpi="63.194611"
       inkscape:export-ydpi="63.194611" /><g
       id="g78"
       transform="matrix(2.9663243,0,0,2.9663243,-76.368433,37.898817)"
       inkscape:export-filename="G:\Users\suitedoalex\sites\banco-galicia-logo-4.png"
       inkscape:export-xdpi="63.194611"
       inkscape:export-ydpi="63.194611"><g
         id="g80"
         clip-path="url(#clipPath84)"><g
           id="g86"
           transform="translate(161.6235,84.5703)"><path
             d="m 0,0 c 0,-0.557 -0.188,-1.032 -0.565,-1.419 -0.378,-0.386 -0.848,-0.58 -1.41,-0.58 -0.557,0 -1.023,0.194 -1.389,0.58 -0.37,0.387 -0.553,0.862 -0.553,1.419 0,0.564 0.183,1.04 0.553,1.424 0.366,0.384 0.832,0.58 1.389,0.58 0.562,0 1.032,-0.196 1.41,-0.58 C -0.188,1.04 0,0.564 0,0"
             style="fill:#ffffff;fill-opacity:1;fill-rule:nonzero;stroke:none"
             id="path88"
             inkscape:connector-curvature="0" /></g></g></g><path
       d="m 391.7472,273.02451 h 10.99617 V 228.92713 H 391.7472 Z"
       style="fill:#ffffff;fill-opacity:1;fill-rule:nonzero;stroke:none;stroke-width:2.96632433"
       id="path90"
       inkscape:connector-curvature="0"
       inkscape:export-filename="G:\Users\suitedoalex\sites\banco-galicia-logo-4.png"
       inkscape:export-xdpi="63.194611"
       inkscape:export-ydpi="63.194611" /><g
       id="g92"
       transform="matrix(2.9663243,0,0,2.9663243,-76.368433,37.898817)"
       inkscape:export-filename="G:\Users\suitedoalex\sites\banco-galicia-logo-4.png"
       inkscape:export-xdpi="63.194611"
       inkscape:export-ydpi="63.194611"><g
         id="g94"
         clip-path="url(#clipPath98)"><g
           id="g100"
           transform="translate(172.981,64.3987)"><path
             d="m 0,0 -0.281,1.791 h -0.06 C -0.487,1.646 -0.686,1.454 -0.943,1.218 -1.2,0.983 -1.508,0.746 -1.867,0.51 -2.226,0.271 -2.642,0.067 -3.115,-0.106 c -0.478,-0.177 -1,-0.264 -1.575,-0.264 -0.511,0 -1.027,0.103 -1.54,0.31 -0.517,0.205 -0.979,0.503 -1.392,0.893 -0.408,0.393 -0.743,0.874 -1,1.451 -0.261,0.575 -0.386,1.223 -0.386,1.942 0,1.129 0.295,2.026 0.895,2.683 0.594,0.657 1.332,1.159 2.207,1.497 0.872,0.34 1.81,0.559 2.82,0.664 1.006,0.1 1.932,0.154 2.775,0.154 v 0.278 c 0,0.986 -0.191,1.727 -0.569,2.219 -0.38,0.494 -1.057,0.74 -2.022,0.74 -0.492,0 -0.981,-0.056 -1.467,-0.17 -0.479,-0.111 -0.918,-0.232 -1.308,-0.354 -0.454,-0.143 -0.896,-0.31 -1.326,-0.492 l -0.833,2.219 c 0.576,0.286 1.189,0.546 1.851,0.773 0.535,0.207 1.143,0.389 1.835,0.553 0.687,0.165 1.375,0.246 2.051,0.246 1.705,0 3.018,-0.465 3.934,-1.4 0.916,-0.937 1.372,-2.25 1.372,-3.933 V 0 Z M -0.311,6.941 C -0.803,6.941 -1.353,6.909 -1.959,6.849 -2.569,6.787 -3.143,6.668 -3.686,6.493 -4.234,6.319 -4.687,6.06 -5.045,5.72 -5.404,5.382 -5.587,4.936 -5.587,4.382 c 0,-0.618 0.208,-1.091 0.619,-1.421 0.412,-0.327 0.863,-0.494 1.356,-0.494 0.434,0 0.853,0.083 1.25,0.246 0.403,0.167 0.758,0.354 1.067,0.559 0.368,0.224 0.698,0.492 0.984,0.8 z"
             style="fill:#ffffff;fill-opacity:1;fill-rule:nonzero;stroke:none"
             id="path102"
             inkscape:connector-curvature="0" /></g></g></g><g
       id="g104"
       transform="matrix(2.9663243,0,0,2.9663243,316.30527,296.27308)"
       inkscape:export-filename="G:\Users\suitedoalex\sites\banco-galicia-logo-4.png"
       inkscape:export-xdpi="63.194611"
       inkscape:export-ydpi="63.194611"><path
         d="m 0,0 h -3.704 l -0.002,-22.694 h 3.704 z"
         style="fill:#ffffff;fill-opacity:1;fill-rule:nonzero;stroke:none"
         id="path106"
         inkscape:connector-curvature="0" /></g><g
       id="g108"
       transform="matrix(2.9663243,0,0,2.9663243,-76.368433,37.898817)"
       inkscape:export-filename="G:\Users\suitedoalex\sites\banco-galicia-logo-4.png"
       inkscape:export-xdpi="63.194611"
       inkscape:export-ydpi="63.194611"><g
         id="g110"
         clip-path="url(#clipPath114)"><g
           id="g116"
           transform="translate(110.075,75.6943)"><path
             d="m 0,0 -7.427,-0.002 v -3.121 h 3.698 V -8.024 C -3.936,-8.068 -4.172,-8.108 -4.441,-8.149 -4.668,-8.189 -4.94,-8.22 -5.258,-8.24 -5.577,-8.263 -5.93,-8.271 -6.321,-8.271 c -0.966,0 -1.858,0.185 -2.668,0.554 -0.814,0.371 -1.514,0.879 -2.099,1.527 -0.583,0.646 -1.043,1.426 -1.373,2.329 -0.329,0.903 -0.491,1.902 -0.491,2.991 0,1.152 0.188,2.195 0.57,3.132 0.38,0.934 0.908,1.731 1.586,2.39 0.68,0.657 1.477,1.165 2.393,1.525 0.913,0.361 1.897,0.54 2.945,0.54 0.555,0 1.065,-0.024 1.526,-0.076 0.464,-0.053 0.867,-0.108 1.219,-0.169 0.393,-0.082 0.76,-0.157 1.111,-0.215 l 1.018,2.897 c -0.472,0.165 -0.999,0.311 -1.578,0.432 -0.489,0.103 -1.082,0.208 -1.77,0.309 -0.687,0.102 -1.466,0.154 -2.328,0.154 -1.462,0 -2.842,-0.251 -4.147,-0.759 -1.307,-0.498 -2.454,-1.224 -3.443,-2.171 -0.984,-0.945 -1.767,-2.087 -2.343,-3.425 -0.574,-1.335 -0.862,-2.838 -0.862,-4.502 0,-1.664 0.255,-3.166 0.77,-4.503 0.514,-1.336 1.223,-2.478 2.129,-3.424 0.904,-0.946 1.967,-1.67 3.192,-2.175 1.223,-0.503 2.534,-0.756 3.934,-0.756 0.862,0 1.713,0.078 2.559,0.231 0.843,0.155 1.591,0.325 2.252,0.511 0.78,0.224 1.523,0.473 2.221,0.74 z"
             style="fill:#ffffff;fill-opacity:1;fill-rule:nonzero;stroke:none"
             id="path118"
             inkscape:connector-curvature="0" /></g><g
           id="g120"
           transform="translate(155.0381,65.8386)"><path
             d="m 0,0 c -0.533,-0.349 -1.111,-0.657 -1.727,-0.924 -0.535,-0.227 -1.153,-0.432 -1.851,-0.618 -0.701,-0.185 -1.429,-0.279 -2.19,-0.279 -0.862,0 -1.681,0.178 -2.454,0.526 -0.77,0.349 -1.443,0.838 -2.019,1.463 -0.58,0.629 -1.032,1.384 -1.372,2.27 -0.338,0.883 -0.506,1.871 -0.506,2.958 0,1.134 0.184,2.2 0.552,3.212 0.37,1.005 0.888,1.895 1.559,2.664 0.667,0.774 1.467,1.386 2.404,1.837 0.938,0.454 1.97,0.677 3.1,0.677 0.538,0 1.038,-0.042 1.512,-0.138 0.471,-0.092 0.903,-0.19 1.293,-0.29 0.435,-0.126 0.858,-0.261 1.267,-0.403 l -0.955,-2.499 -0.618,0.155 c -0.183,0.042 -0.408,0.081 -0.662,0.123 -0.259,0.041 -0.635,0.061 -0.945,0.061 -0.678,0 -1.408,-0.127 -1.982,-0.387 C -6.174,10.154 -6.665,9.792 -7.077,9.33 -7.487,8.87 -7.814,8.323 -8.046,7.697 -8.287,7.068 -8.405,6.385 -8.405,5.645 c 0,-1.314 0.363,-2.375 1.08,-3.178 0.722,-0.8 1.67,-1.205 2.837,-1.205 0.414,0 1.018,0.035 1.418,0.095 0.403,0.062 0.755,0.135 1.065,0.216 0.368,0.083 0.699,0.197 0.989,0.338 z"
             style="fill:#ffffff;fill-opacity:1;fill-rule:nonzero;stroke:none"
             id="path122"
             inkscape:connector-curvature="0" /></g><g
           id="g124"
           transform="translate(64.7424,84.8101)"><path
             d="m 0,0 v -0.001 c -0.01,-0.007 -0.312,-0.201 -1.011,-0.413 -0.815,-0.25 -2.163,-0.523 -4.211,-0.559 0.043,2.03 0.319,3.375 0.565,4.18 0.197,0.629 0.371,0.933 0.402,0.983 0.004,0.006 0.007,0.011 0.007,0.011 h -0.007 v 0.001 c 0,0.791 -0.642,1.435 -1.438,1.435 -0.792,0 -1.434,-0.644 -1.434,-1.435 V 4.201 h -0.01 c 0,0 0.003,-0.007 0.011,-0.016 0.042,-0.067 0.21,-0.372 0.397,-0.978 0.245,-0.802 0.526,-2.143 0.562,-4.18 -2.051,0.04 -3.402,0.316 -4.215,0.563 -0.7,0.216 -1.001,0.409 -1.001,0.409 V -0.008 L -11.388,0 c -0.798,0 -1.445,-0.648 -1.445,-1.446 0,-0.796 0.647,-1.445 1.445,-1.445 l 0.005,0.005 v -0.003 c 0,0 0.301,0.197 1.006,0.409 0.808,0.25 2.149,0.524 4.189,0.562 -0.104,-2.251 -0.506,-3.545 -0.75,-4.142 -0.152,-0.355 -0.519,-1.043 -1.107,-1.216 l 0.002,-0.003 2.356,-16.976 2.341,16.976 0.003,0.003 c -0.591,0.173 -0.955,0.865 -1.107,1.221 -0.01,0.024 -0.02,0.045 -0.029,0.065 -0.25,0.622 -0.62,1.897 -0.722,4.072 2.035,-0.038 3.382,-0.314 4.195,-0.563 0.694,-0.21 0.996,-0.402 1.006,-0.408 v -0.002 c 0.798,0 1.444,0.649 1.444,1.445 C 1.444,-0.648 0.798,0 0,0"
             style="fill:#ffffff;fill-opacity:1;fill-rule:nonzero;stroke:none"
             id="path126"
             inkscape:connector-curvature="0" /></g></g></g></g></svg>