<?xml version="1.0" encoding="UTF-8"?>
<!DOCTYPE svg PUBLIC "-//W3C//DTD SVG 1.1//EN" "http://www.w3.org/Graphics/SVG/1.1/DTD/svg11.dtd">
<!-- Creator: CorelDRAW X7 -->
<svg xmlns="http://www.w3.org/2000/svg" xml:space="preserve" width="6.66666in" height="6.66666in" version="1.1" style="shape-rendering:geometricPrecision; text-rendering:geometricPrecision; image-rendering:optimizeQuality; fill-rule:evenodd; clip-rule:evenodd"
viewBox="0 0 6667 6667"
 xmlns:xlink="http://www.w3.org/1999/xlink">
 <defs>
  <style type="text/css">
   <![CDATA[
    .fil3 {fill:#008FFE}
    .fil4 {fill:#00D9CE}
    .fil2 {fill:#6633FF}
    .fil1 {fill:#9900CC}
    .fil6 {fill:#FE339A}
    .fil5 {fill:#FFCC00}
    .fil7 {fill:white}
    .fil0 {fill:black;fill-rule:nonzero}
   ]]>
  </style>
    <mask id="id0">
  <linearGradient id="id1" gradientUnits="userSpaceOnUse" x1="1441.15" y1="3410.51" x2="1519.56" y2="3044.61">
   <stop offset="0" style="stop-opacity:0.87451; stop-color:white"/>
   <stop offset="1" style="stop-opacity:0; stop-color:white"/>
  </linearGradient>
     <rect style="fill:url(#id1)" x="1107" y="2990" width="883" height="693"/>
    </mask>
 </defs>
 <g id="Layer_x0020_1">
  <metadata id="CorelCorpID_0Corel-Layer"/>
  <g id="_2606988381312">
   <path class="fil0" d="M2883 3514c20,-27 35,-56 46,-88 10,-32 16,-66 16,-100 0,-43 -8,-84 -24,-122 -15,-39 -37,-72 -65,-101 -28,-28 -61,-51 -100,-67 -39,-17 -82,-25 -129,-25 -47,0 -90,8 -129,25 -39,17 -73,40 -101,69 -29,28 -51,62 -67,100 -15,39 -23,79 -23,122 0,43 8,84 23,122 16,39 38,72 66,101 28,28 61,51 100,67 39,17 82,25 129,25 36,0 69,-5 100,-15 31,-11 60,-25 86,-43l73 66 69 -77 -70 -59zm-152 0c-14,9 -30,16 -48,22 -17,5 -36,7 -56,7 -30,0 -58,-5 -84,-17 -25,-12 -47,-27 -66,-47 -18,-20 -32,-43 -42,-69 -11,-27 -16,-55 -16,-84 0,-30 5,-58 16,-85 10,-26 24,-49 42,-68 18,-20 40,-35 65,-47 25,-11 53,-17 83,-17 30,0 58,6 84,18 25,12 47,27 65,47 19,20 33,43 43,69 10,27 15,55 15,84 0,22 -2,42 -7,62 -6,19 -13,37 -24,53l-105 -96 -69 79 104 89zm797 -113c0,-33 -6,-64 -18,-93 -13,-29 -30,-54 -51,-76 -22,-22 -48,-39 -78,-52 -30,-12 -63,-18 -98,-18 -35,0 -68,6 -98,19 -30,13 -56,30 -78,52 -21,22 -39,47 -51,76 -13,30 -19,61 -19,94 0,33 6,64 19,93 12,29 29,54 51,76 21,22 47,39 77,51 30,13 62,19 97,19 36,0 69,-6 99,-19 30,-13 56,-30 78,-52 22,-22 39,-47 51,-76 13,-29 19,-60 19,-94zm-106 2c0,20 -4,39 -10,57 -6,18 -16,33 -28,47 -12,13 -26,24 -43,32 -17,8 -37,11 -58,11 -20,0 -39,-3 -56,-11 -17,-8 -32,-19 -44,-32 -12,-14 -22,-29 -29,-48 -7,-18 -10,-37 -10,-58 0,-20 3,-39 9,-57 6,-17 16,-33 28,-46 12,-14 26,-24 43,-32 18,-8 36,-12 57,-12 21,0 40,4 57,12 17,8 32,18 44,32 13,14 22,30 29,48 7,18 11,37 11,57zm596 -159c-12,-25 -29,-45 -52,-60 -23,-15 -51,-22 -84,-22 -18,0 -34,2 -48,6 -14,5 -27,11 -38,18 -11,8 -21,17 -30,26 -9,9 -17,19 -25,30l0 -71 -106 0 0 460 106 0 0 -258c0,-36 9,-64 27,-84 18,-20 42,-31 71,-31 30,0 53,10 69,29 16,19 24,47 24,83l0 261 107 0 0 -259c0,-37 9,-65 27,-84 18,-20 42,-30 71,-30 29,0 52,10 68,29 16,19 24,47 24,84l0 260 107 0 0 -293c0,-57 -15,-100 -43,-131 -28,-30 -68,-45 -119,-45 -35,0 -65,7 -90,22 -25,15 -47,35 -66,60zm921 157c0,-38 -6,-72 -19,-102 -12,-29 -28,-54 -48,-75 -20,-21 -42,-36 -68,-47 -25,-10 -52,-15 -79,-15 -37,0 -68,8 -93,25 -25,16 -46,37 -63,61l0 -77 -106 0 0 600 106 0 -1 -211c17,21 37,40 62,57 25,16 57,24 94,24 28,0 54,-5 80,-16 26,-10 49,-26 69,-46 20,-21 36,-46 48,-76 12,-29 18,-63 18,-102zm-107 0c0,23 -3,44 -10,62 -7,18 -16,34 -28,46 -12,13 -26,23 -42,30 -16,7 -33,11 -51,11 -18,0 -35,-4 -52,-11 -16,-7 -30,-17 -42,-30 -12,-13 -22,-29 -29,-47 -8,-18 -11,-38 -11,-61 0,-22 3,-43 11,-61 7,-18 17,-33 29,-46 12,-13 26,-23 42,-30 17,-7 34,-11 52,-11 18,0 35,4 51,11 16,7 30,17 42,29 12,13 21,29 28,47 7,18 10,39 10,61zm622 -230l-110 0 -119 342 -131 -342 -113 0 192 460c-9,20 -18,34 -28,41 -10,8 -22,12 -37,12 -11,0 -22,-2 -32,-5 -10,-3 -20,-7 -30,-13l-36 79c17,9 33,16 50,21 17,5 37,8 59,8 19,0 35,-3 50,-7 14,-5 28,-13 40,-23 12,-10 23,-23 33,-39 10,-17 20,-37 29,-60l183 -474zm203 460l0 -636 -106 0 0 636 106 0z"/>
   <g>
    <path class="fil1" d="M1766 3412c-41,39 -89,71 -143,95 -109,47 -227,50 -333,16 30,145 121,275 259,349l538 0 -125 -193c-55,-97 -121,-187 -196,-267z"/>
    <path class="fil2" d="M1766 3412c75,80 141,170 196,267 78,-94 125,-214 125,-346 0,-168 -77,-319 -198,-417 60,180 7,372 -123,496z"/>
    <path class="fil3" d="M1766 3412c130,-124 183,-316 123,-496 -201,-38 -399,46 -513,205 146,74 278,172 390,291z"/>
    <path class="fil4" d="M1376 3121c114,-159 312,-243 513,-205 -93,-76 -211,-121 -340,-121 -181,0 -341,88 -439,225 93,25 181,59 266,101z"/>
    <path class="fil5" d="M1376 3121c-85,-42 -173,-76 -266,-101 -55,78 -91,171 -99,272 62,115 163,195 279,231 -18,-89 -13,-184 19,-275 17,-46 39,-89 67,-127z"/>
    <path class="fil6" d="M1290 3523c-116,-36 -217,-116 -279,-231 -1,14 -1,27 -1,41 0,298 241,539 539,539 -138,-74 -229,-204 -259,-349z"/>
   </g>
   <path class="fil7" style="mask:url(#id0)" d="M1444 3044c-98,-36 -204,-53 -313,-51 -7,9 -14,18 -21,27 93,25 181,59 266,101 146,74 278,172 390,291 75,80 141,170 196,267 9,-11 17,-21 25,-32 -29,-118 -82,-225 -153,-317 -100,-131 -235,-230 -390,-286z"/>
  </g>
 </g>
</svg>
